<svg width="45" height="45" viewBox="0 0 45 45" fill="none" xmlns="http://www.w3.org/2000/svg">
<path d="M20.8516 1.76362C21.8716 1.17469 23.1284 1.17469 24.1484 1.76362L39.634 10.7042C40.6541 11.2932 41.2824 12.3815 41.2824 13.5594V31.4406C41.2824 32.6185 40.6541 33.7068 39.634 34.2958L24.1484 43.2364C23.1284 43.8253 21.8716 43.8253 20.8516 43.2364L5.36599 34.2958C4.34593 33.7068 3.71755 32.6185 3.71755 31.4406V13.5594C3.71755 12.3815 4.34593 11.2932 5.36599 10.7042L20.8516 1.76362Z" stroke="#6C3900" stroke-width="1.40625"/>
<path d="M23.75 17C23.75 16.5858 23.4142 16.25 23 16.25C22.5858 16.25 22.25 16.5858 22.25 17L23.75 17ZM22.4697 29.5303C22.7626 29.8232 23.2374 29.8232 23.5303 29.5303L28.3033 24.7574C28.5962 24.4645 28.5962 23.9896 28.3033 23.6967C28.0104 23.4038 27.5355 23.4038 27.2426 23.6967L23 27.9393L18.7574 23.6967C18.4645 23.4038 17.9896 23.4038 17.6967 23.6967C17.4038 23.9896 17.4038 24.4645 17.6967 24.7574L22.4697 29.5303ZM22.25 17L22.25 29L23.75 29L23.75 17L22.25 17Z" fill="#6C3900"/>
</svg>
