<svg width="45" height="45" viewBox="0 0 45 45" fill="none" xmlns="http://www.w3.org/2000/svg">
<path d="M43.2364 20.8516C43.8253 21.8716 43.8253 23.1284 43.2364 24.1484L34.2958 39.634C33.7068 40.6541 32.6185 41.2824 31.4406 41.2824L13.5594 41.2824C12.3815 41.2824 11.2932 40.6541 10.7042 39.634L1.76363 24.1484C1.17469 23.1284 1.17469 21.8716 1.76363 20.8516L10.7042 5.36599C11.2932 4.34593 12.3815 3.71755 13.5594 3.71755L31.4406 3.71755C32.6185 3.71755 33.7068 4.34593 34.2958 5.36599L43.2364 20.8516Z" stroke="#DB8116" stroke-width="1.40625"/>
<path d="M28 23.75C28.4142 23.75 28.75 23.4142 28.75 23C28.75 22.5858 28.4142 22.25 28 22.25L28 23.75ZM15.4697 22.4697C15.1768 22.7626 15.1768 23.2374 15.4697 23.5303L20.2426 28.3033C20.5355 28.5962 21.0104 28.5962 21.3033 28.3033C21.5962 28.0104 21.5962 27.5355 21.3033 27.2426L17.0607 23L21.3033 18.7574C21.5962 18.4645 21.5962 17.9896 21.3033 17.6967C21.0104 17.4038 20.5355 17.4038 20.2426 17.6967L15.4697 22.4697ZM28 22.25L16 22.25L16 23.75L28 23.75L28 22.25Z" fill="white"/>
</svg>
