<svg width="1442" height="574" viewBox="0 0 1442 574" fill="none" xmlns="http://www.w3.org/2000/svg">
<path d="M1153 241.046V94.0366L1296.97 2L1441 94.0366V241.046L1296.97 333.031L1153 241.046Z" stroke="#FFD385" stroke-width="2"/>
<path d="M577 241.046V94.0366L720.974 2L865 94.0366V241.046L720.974 333.031L577 241.046Z" stroke="#FFD385" stroke-width="2"/>
<path d="M721 480.015V333.006L864.974 240.969L1009 333.006V480.015L864.974 572L721 480.015Z" stroke="#FFD385" stroke-width="2"/>
<path d="M1 241.046V94.0366L144.974 2L289 94.0366V241.046L144.974 333.031L1 241.046Z" stroke="#FFD385" stroke-width="2"/>
<path d="M145 480.015V333.006L288.974 240.969L433 333.006V480.015L288.974 572L145 480.015Z" stroke="#FFD385" stroke-width="2"/>
<path d="M865 241.046V94.0366L1008.97 2L1153 94.0366V241.046L1008.97 333.031L865 241.046Z" stroke="#FFD385" stroke-width="2"/>
<path d="M1009 480.015V333.006L1152.97 240.969L1297 333.006V480.015L1152.97 572L1009 480.015Z" stroke="#FFD385" stroke-width="2"/>
<path d="M289 241.046V94.0366L432.974 2L577 94.0366V241.046L432.974 333.031L289 241.046Z" stroke="#FFD385" stroke-width="2"/>
<path d="M433 480.015V333.006L576.974 240.969L721 333.006V480.015L576.974 572L433 480.015Z" stroke="#FFD385" stroke-width="2"/>
<path d="M318.119 225.952V109.276L432.154 36.2299L546.23 109.276V225.952L432.154 298.956L318.119 225.952Z" fill="#FFA232"/>
<path d="M31.4402 225.952V109.276L145.475 36.2299L259.552 109.276V225.952L145.475 298.956L31.4402 225.952Z" fill="#FFA232"/>
<path d="M893.81 225.952V109.276L1007.85 36.2297L1121.92 109.276V225.952L1007.85 298.956L893.81 225.952Z" fill="#FFA232"/>
<path d="M1180.49 225.952V109.276L1294.52 36.2299L1408.6 109.276V225.952L1294.52 298.956L1180.49 225.952Z" fill="#FFA232"/>
<path d="M605.575 226.651V108.937L719.999 35.2404L834.465 108.937V226.651L719.999 300.306L605.575 226.651Z" fill="#FFA232"/>
<path d="M460.316 468.284V351.608L574.351 278.562L688.427 351.608V468.284L574.351 541.289L460.316 468.284Z" fill="#FFA232"/>
<path d="M173.638 468.284V351.608L287.673 278.562L401.749 351.608V468.284L287.673 541.289L173.638 468.284Z" fill="#FFA232"/>
<path d="M747.773 468.983V351.269L862.197 277.573L976.663 351.269V468.983L862.197 542.638L747.773 468.983Z" fill="#FFA232"/>
<path d="M1036.79 468.983V351.269L1151.21 277.573L1265.68 351.269V468.983L1151.21 542.638L1036.79 468.983Z" fill="#FFA232"/>
</svg>
