<svg width="45" height="45" viewBox="0 0 45 45" fill="none" xmlns="http://www.w3.org/2000/svg">
<path d="M20.8516 1.76362C21.8716 1.17469 23.1284 1.17469 24.1484 1.76362L39.634 10.7042C40.6541 11.2932 41.2824 12.3815 41.2824 13.5594V31.4406C41.2824 32.6185 40.6541 33.7068 39.634 34.2958L24.1484 43.2364C23.1284 43.8253 21.8716 43.8253 20.8516 43.2364L5.36599 34.2958C4.34593 33.7068 3.71755 32.6185 3.71755 31.4406V13.5594C3.71755 12.3815 4.34593 11.2932 5.36599 10.7042L20.8516 1.76362Z" stroke="#6C3900" stroke-width="1.40625"/>
<path d="M30.3039 15.4637C28.8187 14.8032 27.2723 14.3227 25.665 14.0625C25.4615 14.4228 25.2377 14.8832 25.0749 15.2636C23.3658 15.0033 21.6364 15.0033 19.9273 15.2636C19.7442 14.8432 19.5407 14.4428 19.3169 14.0625C17.7096 14.3227 16.1429 14.8032 14.6779 15.4838C11.7481 19.7876 10.9546 23.9713 11.3411 28.115C13.0706 29.3761 14.9831 30.337 17.0381 30.9375C17.5061 30.3169 17.913 29.6764 18.2589 28.9958C17.5875 28.7556 16.9567 28.4553 16.3463 28.095C16.5091 27.9749 16.6515 27.8548 16.8143 27.7347C20.4156 29.4161 24.607 29.4161 28.2083 27.7347C28.371 27.8548 28.5135 27.9749 28.6762 28.095C28.0658 28.4553 27.4148 28.7556 26.7433 28.9958C27.0892 29.6764 27.4961 30.3169 27.9641 30.9375C30.0191 30.3169 31.952 29.3761 33.6611 28.115C34.1087 23.3107 32.8472 19.147 30.3039 15.4637ZM18.7472 25.5527C17.6282 25.5527 16.7329 24.5518 16.7329 23.3307C16.7329 22.1097 17.6282 21.0887 18.7472 21.0887C19.8866 21.0887 20.7819 22.0896 20.7819 23.3307C20.7615 24.5518 19.8866 25.5527 18.7472 25.5527ZM26.2347 25.5527C25.1156 25.5527 24.2204 24.5518 24.2204 23.3307C24.2204 22.1097 25.1156 21.0887 26.2347 21.0887C27.3741 21.0887 28.2693 22.0896 28.249 23.3307C28.2286 24.5718 27.3537 25.5527 26.2347 25.5527Z" fill="#6C3900"/>
</svg>
