<svg width="245" height="230" viewBox="0 0 245 230" fill="none" xmlns="http://www.w3.org/2000/svg">

<path d="M0 131.321V97.2921L33.1883 76L66.3887 97.2921V131.321L33.1883 152.625L0 131.321Z" fill="#FFF6D8"/>
<path d="M178 131.321V97.2921L211.188 76L244.389 97.2921V131.321L211.188 152.625L178 131.321Z" fill="#FFF6D8"/>
<path d="M45 55.3211V21.2921L78.1883 0L111.389 21.2921V55.3211L78.1883 76.6253L45 55.3211Z" fill="#FFF6D8"/>
<path d="M45 208.321V174.292L78.1883 153L111.389 174.292V208.321L78.1883 229.625L45 208.321Z" fill="#FFF6D8"/>
<path d="M133 55.3211V21.2921L166.188 0L199.389 21.2921V55.3211L166.188 76.6253L133 55.3211Z" fill="#FFF6D8"/>
<path d="M133 208.321V174.292L166.188 153L199.389 174.292V208.321L166.188 229.625L133 208.321Z" fill="#FFF6D8"/>
</svg>
