<svg width="45" height="45" viewBox="0 0 45 45" fill="none" xmlns="http://www.w3.org/2000/svg">
<path d="M20.8516 1.76362C21.8716 1.17469 23.1284 1.17469 24.1484 1.76362L39.634 10.7042C40.6541 11.2932 41.2824 12.3815 41.2824 13.5594V31.4406C41.2824 32.6185 40.6541 33.7068 39.634 34.2958L24.1484 43.2364C23.1284 43.8253 21.8716 43.8253 20.8516 43.2364L5.36599 34.2958C4.34593 33.7068 3.71755 32.6185 3.71755 31.4406V13.5594C3.71755 12.3815 4.34593 11.2932 5.36599 10.7042L20.8516 1.76362Z" stroke="#6C3900" stroke-width="1.40625"/>
<path d="M22.5 14.4314C25.1283 14.4314 25.44 14.4413 26.4785 14.4888C29.1478 14.6102 30.3914 15.8752 30.5145 18.5231C30.5604 19.5616 30.5702 19.8717 30.5702 22.5C30.5702 25.1283 30.5604 25.44 30.5145 26.4769C30.3914 29.1232 29.1495 30.3914 26.4785 30.5128C25.44 30.5588 25.1299 30.5702 22.5 30.5702C19.8717 30.5702 19.56 30.5604 18.5231 30.5128C15.8489 30.3898 14.6102 29.1199 14.4872 26.4769C14.4413 25.44 14.4298 25.1283 14.4298 22.5C14.4298 19.8717 14.4413 19.56 14.4872 18.5231C14.6086 15.8735 15.8522 14.6086 18.5231 14.4872C19.56 14.4396 19.8717 14.4314 22.5 14.4314ZM22.5 12.6562C19.8258 12.6562 19.4927 12.6677 18.4411 12.717C14.8645 12.881 12.8794 14.8645 12.7153 18.4411C12.6677 19.4927 12.6562 19.8274 12.6562 22.5C12.6562 25.1742 12.6677 25.5089 12.7153 26.5589C12.8794 30.1338 14.8645 32.1206 18.4411 32.2847C19.4927 32.3323 19.8258 32.3438 22.5 32.3438C25.1742 32.3438 25.5089 32.3323 26.5605 32.2847C30.1305 32.1206 32.1239 30.1371 32.2847 26.5589C32.3323 25.5089 32.3438 25.1742 32.3438 22.5C32.3438 19.8274 32.3323 19.4927 32.2847 18.4411C32.1239 14.8695 30.1371 12.8794 26.5605 12.717C25.5089 12.6677 25.1742 12.6562 22.5 12.6562ZM22.5 17.4452C19.7093 17.4452 17.4452 19.7077 17.4452 22.5C17.4452 25.2923 19.7093 27.5548 22.5 27.5548C25.2907 27.5548 27.5548 25.2923 27.5548 22.5C27.5548 19.7093 25.2907 17.4452 22.5 17.4452ZM22.5 25.7812C20.6871 25.7812 19.2188 24.3129 19.2188 22.5C19.2188 20.6888 20.6871 19.2188 22.5 19.2188C24.3112 19.2188 25.7829 20.6871 25.7829 22.5C25.7829 24.3129 24.3112 25.7812 22.5 25.7812ZM27.7533 16.0655C27.102 16.0655 26.572 16.5938 26.572 17.2467C26.572 17.898 27.1003 18.428 27.7533 18.428C28.4062 18.428 28.9362 17.8997 28.9362 17.2467C28.9362 16.5938 28.4079 16.0655 27.7533 16.0655Z" fill="#6C3900"/>
</svg>
