<svg width="1530" height="276" viewBox="0 0 1530 276" fill="none" xmlns="http://www.w3.org/2000/svg">
<path fill-rule="evenodd" clip-rule="evenodd" d="M0 275.259V31.6375L54.3051 30.5226L58.0436 212.617L180.167 210.109L181.428 271.534L0 275.259ZM1530 182.396V243.847L1349.34 247.556L1344.34 4.03706L1530 0.225281V61.6761L1413.93 64.0591L1414.54 93.4995L1530 91.1289V152.216L1415.79 154.561L1416.41 184.728L1530 182.396ZM1328.39 247.986L1327.13 186.561L1198.83 189.195L1198.21 159.028L1321.06 156.506L1319.81 95.4443L1196.96 97.9666L1196.35 68.5262L1324.65 65.892L1323.39 4.46712L1126.76 8.50416L1131.76 252.023L1328.39 247.986ZM1112.54 184.785C1113.41 227.31 1086.67 252.949 1027.06 254.173L890.398 256.978L885.399 13.4595L1014.79 10.803C1070.4 9.66127 1098.04 27.6381 1098.89 69.0727C1099.52 99.6034 1083.54 118.476 1050.16 122.07L1050.26 126.795C1091.36 127.406 1111.87 152.074 1112.54 184.785ZM1010.96 72.3324L954.991 73.4815L955.632 104.739L1013.06 103.56C1027.23 103.269 1031.17 99.9159 1030.91 87.5582C1030.64 74.4736 1025.14 72.0414 1010.96 72.3324ZM1022.51 156.454L956.722 157.805L957.468 194.151L1023.25 192.8C1036.34 192.531 1043.21 190.572 1042.88 174.58C1042.54 158.224 1036.32 156.17 1022.51 156.454ZM657.656 18.1353L658.477 58.116L590.51 59.5114L589.689 19.5307L657.656 18.1353ZM659.184 74.8278L663.019 261.647L594.689 263.05L590.853 76.2306L659.184 74.8278ZM372.306 206.528C373.082 244.328 338.742 271.941 283.132 273.082C222.434 274.329 187.538 239.411 186.314 179.803C185.045 118.015 219.176 80.2253 281.328 78.9493C341.663 77.7106 372.554 112.347 373.576 162.141C373.785 172.318 372.199 183.623 371.236 189.824L250.203 192.309C251.704 212.277 257.98 216.875 283.059 216.36C299.414 216.024 304.799 212.641 304.627 204.282L304.613 203.555L372.216 202.167L372.306 206.528ZM308.323 154.027C307.713 142.04 301.333 132.354 278.798 132.816C257.717 133.249 250.219 139.948 249.442 155.236L308.323 154.027ZM478.274 269.076C495.357 268.725 512.395 266.194 521.8 263.819L520.628 206.756L490.824 207.367C475.196 207.688 471.138 204.863 470.906 193.595L469.698 134.715L519.128 133.7L517.979 77.7268L468.548 78.7417L467.757 40.2148L413.602 41.3266L402.398 80.0998L375.502 80.652L376.652 136.625L401.367 136.118L402.785 205.175C403.71 250.244 427.753 270.113 478.274 269.076ZM772.166 263.042C789.249 262.691 806.287 260.16 815.692 257.785L814.521 200.722L784.717 201.334C769.088 201.654 765.03 198.829 764.799 187.562L763.59 128.681L813.021 127.666L811.872 71.6929L762.441 72.7078L761.65 34.1809L707.494 35.2928L696.291 74.0659L669.395 74.6181L670.544 130.591L695.259 130.084L696.677 199.141C697.602 244.21 721.645 264.079 772.166 263.042Z" fill="white" fill-opacity="0.2"/>
</svg>
