<svg width="50" height="621" viewBox="0 0 50 621" fill="none" xmlns="http://www.w3.org/2000/svg">
  <path d="M8 38.157v-17.32L24.997 10 42 20.837v17.32L24.997 49 8 38.157Z" fill="#E9A00A"/>
  <path opacity=".5" d="M4.16 44.13A7 7 0 0 1 1 38.278V20.715a7 7 0 0 1 3.16-5.854L21.158 3.713a7 7 0 0 1 7.677 0l17.004 11.149A7 7 0 0 1 49 20.715v17.562a7 7 0 0 1-3.16 5.852L28.836 55.285a7 7 0 0 1-7.68-.001L4.159 44.13Zm8.842 65.802a5 5 0 0 1-2.256-4.18v-9.508a5 5 0 0 1 2.258-4.181l9.252-6.069a5 5 0 0 1 5.483 0l9.257 6.069a5 5 0 0 1 2.258 4.181v9.507a5 5 0 0 1-2.257 4.181l-9.256 6.072a5 5 0 0 1-5.486 0l-9.252-6.072Zm0 46a5 5 0 0 1-2.256-4.18v-9.508c0-1.686.849-3.257 2.258-4.181l9.252-6.069a5 5 0 0 1 5.483 0l9.257 6.069a5 5 0 0 1 2.258 4.181v9.507a5 5 0 0 1-2.257 4.181l-9.256 6.072a5 5 0 0 1-5.486 0l-9.252-6.072Zm0 46a5 5 0 0 1-2.256-4.18v-9.508c0-1.686.849-3.257 2.258-4.181l9.252-6.069a5 5 0 0 1 5.483 0l9.257 6.069a5 5 0 0 1 2.258 4.181v9.507a5 5 0 0 1-2.257 4.181l-9.256 6.072a5 5 0 0 1-5.486 0l-9.252-6.072Zm0 46a5 5 0 0 1-2.256-4.18v-9.508c0-1.686.849-3.257 2.258-4.181l9.252-6.069a5 5 0 0 1 5.483 0l9.257 6.069a5 5 0 0 1 2.258 4.181v9.507a5 5 0 0 1-2.257 4.181l-9.256 6.072a5 5 0 0 1-5.486 0l-9.252-6.072Z" stroke="#fff" stroke-width="2"/>
  <path d="M8 319.157v-17.32L24.997 291 42 301.837v17.32L24.997 330 8 319.157Z" fill="#E9A00A"/>
  <path opacity=".5" d="M4.16 325.13A7 7 0 0 1 1 319.277v-17.562a7.002 7.002 0 0 1 3.16-5.854l16.997-11.148a7.002 7.002 0 0 1 7.677 0l17.004 11.149A6.998 6.998 0 0 1 49 301.715v17.562a7.001 7.001 0 0 1-3.16 5.853l-17.004 11.155a7.001 7.001 0 0 1-7.68-.001L4.159 325.13Zm8.842 65.802a5 5 0 0 1-2.256-4.18v-9.508c0-1.686.849-3.257 2.258-4.181l9.252-6.069a5 5 0 0 1 5.483 0l9.257 6.069a5 5 0 0 1 2.258 4.181v9.507a5 5 0 0 1-2.257 4.181l-9.256 6.072a5 5 0 0 1-5.486 0l-9.252-6.072Zm0 46a5 5 0 0 1-2.256-4.18v-9.508c0-1.686.849-3.257 2.258-4.181l9.252-6.069a5 5 0 0 1 5.483 0l9.257 6.069a5 5 0 0 1 2.258 4.181v9.507a5 5 0 0 1-2.257 4.181l-9.256 6.072a5 5 0 0 1-5.486 0l-9.252-6.072Zm0 46a5 5 0 0 1-2.256-4.18v-9.508c0-1.686.849-3.257 2.258-4.181l9.252-6.069a5 5 0 0 1 5.483 0l9.257 6.069a5 5 0 0 1 2.258 4.181v9.507a5 5 0 0 1-2.257 4.181l-9.256 6.072a5 5 0 0 1-5.486 0l-9.252-6.072Zm0 46a5 5 0 0 1-2.256-4.18v-9.508c0-1.686.849-3.257 2.258-4.181l9.252-6.069a5 5 0 0 1 5.483 0l9.257 6.069a5 5 0 0 1 2.258 4.181v9.507a5 5 0 0 1-2.257 4.181l-9.256 6.072a5 5 0 0 1-5.486 0l-9.252-6.072Z" stroke="#fff" stroke-width="2"/>
  <path d="M8 600.157v-17.32L24.997 572 42 582.837v17.32L24.997 611 8 600.157Z" fill="#E9A00A"/>
  <path opacity=".5" d="M4.16 606.13A7 7 0 0 1 1 600.277v-17.562a7.002 7.002 0 0 1 3.16-5.854l16.997-11.148a7.002 7.002 0 0 1 7.677 0l17.004 11.149A6.998 6.998 0 0 1 49 582.715v17.562a7.001 7.001 0 0 1-3.16 5.853l-17.004 11.155a7.001 7.001 0 0 1-7.68-.001L4.159 606.13Z" stroke="#fff" stroke-width="2"/>
</svg>
