<svg width="46" height="45" viewBox="0 0 46 45" fill="none" xmlns="http://www.w3.org/2000/svg">
<path d="M21.3516 1.76362C22.3716 1.17469 23.6284 1.17469 24.6484 1.76362L40.134 10.7042C41.1541 11.2932 41.7824 12.3815 41.7824 13.5594V31.4406C41.7824 32.6185 41.1541 33.7068 40.134 34.2958L24.6484 43.2364C23.6284 43.8253 22.3716 43.8253 21.3516 43.2364L5.86599 34.2958C4.84593 33.7068 4.21755 32.6185 4.21755 31.4406V13.5594C4.21755 12.3815 4.84593 11.2932 5.86599 10.7042L21.3516 1.76362Z" stroke="#6C3900" stroke-width="1.40625"/>
<path d="M32.8438 16.0601C32.1194 16.3989 31.3409 16.6279 30.524 16.7309C31.3578 16.2037 31.9984 15.3688 32.2999 14.374C31.5194 14.8623 30.655 15.2167 29.7349 15.4077C28.9982 14.5797 27.9484 14.0625 26.7867 14.0625C24.5561 14.0625 22.7475 15.9698 22.7475 18.3225C22.7475 18.6564 22.7832 18.9816 22.8521 19.2934C19.4952 19.1157 16.519 17.4196 14.5269 14.8422C14.1792 15.4714 13.9799 16.2031 13.9799 16.9839C13.9799 18.4619 14.693 19.7659 15.7768 20.5298C15.1147 20.5077 14.4919 20.316 13.9474 19.997C13.9469 20.0147 13.9469 20.0326 13.9469 20.0505C13.9469 22.1146 15.3392 23.8363 17.187 24.2279C16.8481 24.3253 16.4912 24.3773 16.1229 24.3773C15.8626 24.3773 15.6096 24.3505 15.3629 24.3009C15.877 25.9933 17.3686 27.225 19.1361 27.2592C17.7538 28.4019 16.0122 29.083 14.1198 29.083C13.7937 29.083 13.4722 29.0628 13.1562 29.0234C14.9438 30.2322 17.0669 30.9375 19.3479 30.9375C26.7773 30.9375 30.8401 24.4461 30.8401 18.8164C30.8401 18.6317 30.8361 18.448 30.8284 18.2652C31.6174 17.6647 32.3022 16.9144 32.8437 16.0601H32.8438Z" fill="#6C3900"/>
</svg>
